<svg xmlns="http://www.w3.org/2000/svg" xmlns:xlink="http://www.w3.org/1999/xlink" viewBox="0 0 738.03 134.41"><defs><style>.cls-1{fill:url(#オレンジ_イエロー);}.cls-2{fill:url(#オレンジ_イエロー-2);}.cls-3{fill:url(#オレンジ_イエロー-3);}.cls-4{fill:url(#オレンジ_イエロー-4);}.cls-5{fill:url(#オレンジ_イエロー-5);}.cls-6{fill:url(#オレンジ_イエロー-6);}.cls-7{fill:#231815;}.cls-8{fill:none;stroke:#231815;stroke-linecap:round;stroke-miterlimit:10;stroke-width:6.26px;}</style><linearGradient id="オレンジ_イエロー" x1="113.28" y1="67.2" x2="240.06" y2="67.2" gradientUnits="userSpaceOnUse"><stop offset="0" stop-color="#fff21f"/><stop offset="0.01" stop-color="#ffef1c"/><stop offset="0.1" stop-color="#fddc0d"/><stop offset="0.19" stop-color="#fcd103"/><stop offset="0.28" stop-color="#fccd00"/><stop offset="0.67" stop-color="#f1942e"/><stop offset="0.89" stop-color="#ea652d"/><stop offset="1" stop-color="#e5352b"/></linearGradient><linearGradient id="オレンジ_イエロー-2" x1="200.82" y1="19.17" x2="234.53" y2="19.17" xlink:href="#オレンジ_イエロー"/><linearGradient id="オレンジ_イエロー-3" x1="157.91" y1="27.17" x2="162.22" y2="27.17" xlink:href="#オレンジ_イエロー"/><linearGradient id="オレンジ_イエロー-4" x1="154.43" y1="80.85" x2="204.89" y2="80.85" xlink:href="#オレンジ_イエロー"/><linearGradient id="オレンジ_イエロー-5" x1="170.85" y1="53.88" x2="175.9" y2="53.88" xlink:href="#オレンジ_イエロー"/><linearGradient id="オレンジ_イエロー-6" x1="184.89" y1="57" x2="188.61" y2="57" xlink:href="#オレンジ_イエロー"/></defs><title>childimg</title><g id="レイヤー_2" data-name="レイヤー 2"><g id="レイヤー_1-2" data-name="レイヤー 1"><path class="cls-1" d="M137.13,58.61c1.25-2.34,5.56-6.83,3.84-9.83.06.1-2.94-1.69-3-1.76-1.19-.81-2.33-1.81-3.51-2.66a62.47,62.47,0,0,1-7.59-6.5c-1-1-2.08-1.55-1.17-2.67,1.21-1.48,1-.22,1.69,0,.56,0,.78-.24.67-.8a106.35,106.35,0,0,0,8.17,7.15c.25,1.47.65,1.83,1.19,1.08a1.58,1.58,0,0,1,2.14.8,7.75,7.75,0,0,1,3.13,4.25,47.77,47.77,0,0,1,20.77-16.21A41.06,41.06,0,0,1,175.11,29l1.33-.85,1.16.7a15.79,15.79,0,0,0,3.23-.09,44.82,44.82,0,0,1,6.8-.45C184.41,23,190.36,13.79,192.42,9c.8-1.87,2.32-7.47,4.28-8.51,3.34-1.74,1,1.84,3.43,1.4-1.42,1.53-1.62,3.49-2.54,5.25-1.33,2.54-1.15,2.73-2.23,5A30,30,0,0,0,193,18.08c-.7,2.9-1.13,3.58-3.5,5.44,1.64,1.65-.13,3.38-1.12,5.32a26,26,0,0,1,8.46,3.79,15.07,15.07,0,0,0,6,2.72c0,2.4,3.57,3.52,5.44,5.09s3.72,4.43,5.86,5.71c2.31,1.37,1.88.4,3.89-1.33,1.78-1.54,3.52-1.66,5.41-3.18,4-3.23,9.08-8.39,14.11-9.86,3.24-.94,2.95.77,1.35,2.8s-4.62,4-6.75,5.65-4.19,3.21-6.39,4.67-5.93,2.68-7.72,4.41c-2.18,2.11-.37,3.47.7,5.74.94,2,1.11,4.47,1.7,6.66a39.48,39.48,0,0,1,.94,17.84c-.54,3-.06,3.56,2.51,4.78,2.72,1.29,6.26,1.88,9.13,2.75-1.13,2.68-1.08,2.67-3.83,2.72-2.08,0-2.75,0-3.46-1.87-2.61,2.18-.57-.37-2.18-1-1.62,1.74-2.23-1.12-4.17.12-.64.41-1.29,3.9-1.65,4.63-1.58,3.12-4.13,4.38-.35,6.71a31.81,31.81,0,0,1,5.57,4c1.35,1.32,4.76,5.1,5.17,6.78a.7.7,0,0,0-.9.6.46.46,0,0,0,.3.29c.41-.09,1.38-2,1.61-.1a2.58,2.58,0,0,1-1.27,2c-1.85.59-5.54-4.07-6.59-5.12-1.84-1.84-6.42-7.31-9.05-7.4s-5.27,3.78-7.32,5.07A37.94,37.94,0,0,1,186.58,110c-3.91,0-7.9.67-11.7-.5-1-.3-3-1.5-4-1.4-1.32.13-2.06,2-3.42,1.57,2.05,1.93-2.47,8.39-3.42,10.64-1.15,2.72-2.27,3.09-3.7,5.18-.46.68.58,1.68-.81,1.88s-1.54-2.7-1.2-3.6,1.67-1.88,2.13-3c.6-1.48.46-3.29,1-4.83a39.16,39.16,0,0,1,2.83-5.55c1.23-2.25,1.54-2.37-.41-4s-5.25-1.56-7.25-2.68c-1.17-.65-1.83-2.23-3.05-2.73-2.17-.91-1.22-.24-2.34.62-1.86,1.43-4.95,6.34-5.36,8.68-2-1.77-1.47.15-2.37,2a24,24,0,0,1-2.15,3.45c-1.86,2.61-4.2,4.83-6,7.47-2.15,3.15-6.63,11.6-10.87,11.18-.06-2.65,3.43-5.9,4.88-7.84,2.21-3,3.63-6.59,5.8-9.69.92-1.3,2.53-2.36,3.23-3.7,1-2,1.16-3.3,2.84-5.18a52.41,52.41,0,0,0,3.88-4.92c.94-1.33,3.16-2.75,3.8-4.07,1.16-2.38-4.45-8.2-6.67-7.89-1.06.15-2.42,2.22-3.24,2.87-1.8,1.43-3.88,2.56-5.72,4-3.46,2.67-6.65,6.21-10.46,8.35-1.67.94-3.42,1.78-5.09,2.71-2.41,1.35-1.56,1.78-4.43.27,4.08-3.3,7.81-7,12.14-10,3.62-2.49,7.72-4.54,10-8.5,1,1,3.6-.53,4.47-2,.65-1.11-.43-2.84,1.32-3.19a1.35,1.35,0,0,0-1.49-.64,5.09,5.09,0,0,1-.93-1.69c-1.09-1.42-1.79-2.62-.65-3.88-.18-.35-1.67-.54-1.71-.7a10.72,10.72,0,0,1-.16-2.82c0-1.89.47-3.61,0-5.56-.41-1.61-1.32-2.65-1.2-4.35.07-1,1.07-1.6,1.08-2.64a6.75,6.75,0,0,0-1-2.63.71.71,0,0,0,.9-.6.48.48,0,0,0-.3-.29c-.77.17-1,1.58-2,1.74-2.27.37-4-4-6.1-1.93-1.06-.27-.1-1.6-1.13-1.87-1.56,1.48-2.06-1.28-3.47,0,0-4.64,2.93-3.1,6.1-1.6a30.4,30.4,0,0,0,4.65,2,10.48,10.48,0,0,0,3.38.49.7.7,0,0,0,.6.89.46.46,0,0,0,.3-.29A.7.7,0,0,0,137.13,58.61Zm23.77,42.45c2.07,2.45,8.07,3.22,11,3.89a42.45,42.45,0,0,0,16,.62c8.11-1.24,17-4,22.4-10.55a28.62,28.62,0,0,0,5.9-10.48c.69-2.12,2.14-4.2,2.71-6.28,0-.15-.54-1-.48-1.41.12-.71.41-1.85.57-2.69.48-2.58.26-2.29-.66-5.07-.64-1.89-.74-4-1.22-5.9a52.08,52.08,0,0,0-4.57-12.45,38.89,38.89,0,0,0-11.87-12.59,86.78,86.78,0,0,0-8.28-4.46c-3.93-2-9.12-1.5-13.57-1.44a38.19,38.19,0,0,0-6.12.85c-1.66.28-3.62-.11-5.17.34s-3.33,1.34-4.87,1.89c-.59.21-1.53-.23-2,0,1.75-.86-3.34,3.89-1.82,2.44-2.61,2.48-6.09,4-8.72,6.49-3.36,3.12-6.07,8-8.1,12.1-2.94,5.86-2.62,10.45-1.84,16.5.55,4.3,1.11,7.62,3.84,11.11,2.33,3,2.57,5.62,6.28,7.44-1.58,1.77-.16,1.42,1.36,2.69a34.23,34.23,0,0,1,2.89,3.13C156.11,98.94,159,102.94,160.9,101.06Zm52.56-3c.47-.32.47-.66,0-1C213,97.36,213,97.7,213.46,98Z"/><path class="cls-2" d="M200.82,34.34c0-3.29,4.51-6.48,6.7-8.3A113.15,113.15,0,0,0,216,17.68c3-3.18,6.11-6.36,9-9.61,2.2-2.46,5.68-6.63,9.54-4.44-5.35,5.52-10.61,11.1-16,16.6-2.48,2.53-5.18,4.8-7.58,7.41-1.06,1.16-2,2.4-3.19,3.47-1.42,1.33-4.36,2.11-3,3.8C203.93,36,201.93,34.56,200.82,34.34Z"/><path class="cls-3" d="M161.94,30.38c-1.73-.21-5.92-4.59-3.06-6.21C161.33,22.78,162.89,28.84,161.94,30.38Z"/><path class="cls-4" d="M175.55,95a18.74,18.74,0,0,1-10.62-5.07c-1-.93-2.6-1.72-3.37-2.63a11,11,0,0,1-1-2.14,1.81,1.81,0,0,1-.17-1.23c.24-.85-.2-1.2-1.33-1.06-2.37-3.07-2.25-6.23-3-10.12-.29-1.55-2.16-5.83-1.5-6.64.33-.41,1.59.22,2.33-.45.29,1.56,1.18,2.79,1.44,4.37-1.16.6-1.32,1.17-.51,1.71A5.82,5.82,0,0,1,159,73.36c1.58,2.72,1.35,6.36,3.13,8.94,3.65,5.29,10.74,9.64,17.34,9.78,6.91.16,14.71-3.15,18.05-9.48,1.23-2.33,1.1-6.89,2.61-8.7,2.27-2.73,2.75,1.28,4.72-.5-.4,3.81-2.73,8.36-4.92,11.5a21.15,21.15,0,0,1-9.09,8,34.56,34.56,0,0,1-10.53,3.19c-.35,0-.76-.84-1.09-.88-.81-.09-.83.72-1.55.49s-1.16-1.38-1.49-1.46C175.66,94.17,175.43,94.44,175.55,95Z"/><path class="cls-5" d="M172.81,48.28c1.79-.48,2.11,9.32,3.09,10.78C170.29,61.78,169.5,51,172.81,48.28Z"/><path class="cls-6" d="M188.59,52.48c0,3.44.37,6.29-1.26,9-1.46-1.59-2.06-4.09-2.34-6.14C184.5,51.92,185.8,52.84,188.59,52.48Z"/><path class="cls-7" d="M282.91,59.27a2.23,2.23,0,0,1-2.42,2h-3.76c-1.34,0-1.88-.67-1.61-2L277,48.12c1.21-6.45-.67-8.34-5.65-8.34s-7.39,1.89-8.6,8.34L255,92.88c-1.21,6.45.67,8.33,5.64,8.33s7.39-1.88,8.6-8.33l1.89-11.16a2.24,2.24,0,0,1,2.42-2h3.76c1.34,0,1.88.68,1.61,2L277,92.88c-1.75,9.67-5.11,15.32-17.61,15.32s-14-5.65-12.23-15.32L255,48.12c1.74-9.68,5.24-15.32,17.74-15.32s13.84,5.64,12.1,15.32Z"/><path class="cls-7" d="M319.87,105.51a2.13,2.13,0,0,1-2.28,2h-3.77c-1.34,0-2-.68-1.74-2l10.08-57.39c1.21-6.45,0-8.34-5-8.34s-8.19,2.56-9.27,9l-10.08,56.72a2.13,2.13,0,0,1-2.28,2h-3.77c-1.34,0-2-.68-1.75-2L308.31,2a2.25,2.25,0,0,1,2.42-2h3.77c1.34,0,1.88.67,1.61,2l-6.32,35.75a20.28,20.28,0,0,1,12.5-5c5.65,0,9.81,3.49,8.47,11.42Z"/><path class="cls-7" d="M345,105.51a2.12,2.12,0,0,1-2.28,2H339c-1.35,0-2-.68-1.75-2l12.36-70a2.25,2.25,0,0,1,2.42-2h3.77c1.34,0,1.88.67,1.61,2Zm12.64-93.28c3.09,0,4.84,2.15,4.3,5.24a6.21,6.21,0,0,1-6.18,5.24c-3.09,0-4.84-2.15-4.3-5.24A6.21,6.21,0,0,1,357.64,12.23Z"/><path class="cls-7" d="M371.34,105.51a2.13,2.13,0,0,1-2.28,2H365.3c-1.35,0-2-.68-1.75-2L381.83,2a2.24,2.24,0,0,1,2.42-2H388c1.34,0,1.88.67,1.61,2Z"/><path class="cls-7" d="M419.73,105.51a2.13,2.13,0,0,1-2.29,2h-3.76c-1.35,0-2-.68-1.75-2l.4-2.28a20,20,0,0,1-12.36,5c-5.65,0-10-3.5-8.47-11.43l9.28-52.55c1.34-7.93,6.85-11.42,12.5-11.42a14,14,0,0,1,10.61,5L430.21,2a2.25,2.25,0,0,1,2.42-2h3.76c1.35,0,1.89.67,1.62,2ZM400,92.88c-1.21,6.45,0,8.33,5,8.33s8.2-2.55,9.41-9L422,48.79c1.08-6.45-1.34-9-6.31-9s-6.73,1.89-7.93,8.34Z"/><path class="cls-7" d="M446.47,105.51a2.13,2.13,0,0,1-2.28,2h-3.77c-1.34,0-2-.68-1.74-2l12.36-70a2.25,2.25,0,0,1,2.42-2h3.76q2,0,1.62,2Zm12.64-93.28c3.09,0,4.83,2.15,4.3,5.24a6.22,6.22,0,0,1-6.19,5.24c-3.09,0-4.83-2.15-4.3-5.24A6.22,6.22,0,0,1,459.11,12.23Z"/><path class="cls-7" d="M495.66,105.51a2.13,2.13,0,0,1-2.28,2h-3.77c-1.34,0-2-.68-1.74-2L498,48.12c1.21-6.45,0-8.34-5-8.34s-8.2,2.56-9.27,9l-10.08,56.72a2.13,2.13,0,0,1-2.29,2h-3.76c-1.34,0-2-.68-1.75-2l12.37-70a2.24,2.24,0,0,1,2.42-2h3.76c1.35,0,1.88.67,1.61,2l-.4,2.29a20.26,20.26,0,0,1,12.5-5c5.65,0,9.81,3.49,8.47,11.42Z"/><path class="cls-7" d="M540.82,117.2c-1.88,10.89-5.78,17.21-19.89,17.21h-5.65c-1.34,0-1.88-.67-1.61-2l.54-3a2.12,2.12,0,0,1,2.28-2h5.65c7.52,0,9.67-3.76,10.88-10.22l2.42-14a20,20,0,0,1-12.36,5c-5.65,0-10-3.5-8.47-11.43l9.27-52.55c1.35-7.93,6.86-11.42,12.5-11.42a14,14,0,0,1,10.62,5l.41-2.29a2.23,2.23,0,0,1,2.41-2h3.77c1.34,0,1.88.67,1.61,2ZM523.08,92.88c-1.21,6.45,0,8.33,5,8.33s8.2-2.55,9.41-9l7.66-43.41c1.08-6.45-1.34-9-6.32-9s-6.72,1.89-7.93,8.34Z"/><path class="cls-7" d="M569.58,95.83c3.63,0,5.64,2.56,5.11,6.19a7.37,7.37,0,0,1-7.26,6.18c-3.63,0-5.78-2.56-5.11-6.18A7.26,7.26,0,0,1,569.58,95.83Zm5.91-14.65a2.24,2.24,0,0,1-2.42,2h-2.69c-1.34,0-1.88-.67-1.61-2l10.89-68.95a2.05,2.05,0,0,1,2.28-2h5.38c1.34,0,1.88.68,1.75,2Z"/><path class="cls-7" d="M598.34,95.83c3.63,0,5.64,2.56,5.11,6.19a7.37,7.37,0,0,1-7.26,6.18c-3.63,0-5.78-2.56-5.11-6.18A7.26,7.26,0,0,1,598.34,95.83Zm5.91-14.65a2.24,2.24,0,0,1-2.42,2h-2.69c-1.34,0-1.88-.67-1.61-2l10.89-68.95a2.05,2.05,0,0,1,2.28-2h5.38c1.34,0,1.88.68,1.75,2Z"/><line class="cls-8" x1="646.76" y1="65.41" x2="734.9" y2="65.41"/><line class="cls-8" x1="3.13" y1="65.41" x2="91.27" y2="65.41"/></g></g></svg>